<svg width="251" height="310" viewBox="0 0 251 310" fill="none" xmlns="http://www.w3.org/2000/svg">
<g filter="url(#filter0_d_1_21)">
<path d="M45 1.79217e-06L45 297H4L4.00001 0L45 1.79217e-06Z" fill="black"/>
<path d="M247 1.79217e-06L247 302H206L206 0L247 1.79217e-06Z" fill="black"/>
<path d="M206 296H247L247 302H206V296Z" fill="white"/>
<path d="M44.5 58L247 297.5H207L5.00001 58L44.5 58Z" fill="#F9F8F6"/>
<path d="M206 64.9998L207 284L44 64.9998L206 64.9998Z" fill="#221D54"/>
<path d="M206 44.5L207 263.5L81 44.5L206 44.5Z" fill="#0881B7"/>
</g>
<defs>
<filter id="filter0_d_1_21" x="0" y="0" width="251" height="310" filterUnits="userSpaceOnUse" color-interpolation-filters="sRGB">
<feFlood flood-opacity="0" result="BackgroundImageFix"/>
<feColorMatrix in="SourceAlpha" type="matrix" values="0 0 0 0 0 0 0 0 0 0 0 0 0 0 0 0 0 0 127 0" result="hardAlpha"/>
<feOffset dy="4"/>
<feGaussianBlur stdDeviation="2"/>
<feComposite in2="hardAlpha" operator="out"/>
<feColorMatrix type="matrix" values="0 0 0 0 0 0 0 0 0 0 0 0 0 0 0 0 0 0 0.25 0"/>
<feBlend mode="normal" in2="BackgroundImageFix" result="effect1_dropShadow_1_21"/>
<feBlend mode="normal" in="SourceGraphic" in2="effect1_dropShadow_1_21" result="shape"/>
</filter>
</defs>
</svg>
